<?xml version="1.0" encoding="UTF-8" standalone="no"?>
<!-- Created with Inkscape (http://www.inkscape.org/) -->

<svg
   version="1.1"
   id="svg2"
   xml:space="preserve"
   width="1706.6667"
   height="1280"
   viewBox="0 0 1706.6667 1280"
   sodipodi:docname="catw.ai"
   xmlns:inkscape="http://www.inkscape.org/namespaces/inkscape"
   xmlns:sodipodi="http://sodipodi.sourceforge.net/DTD/sodipodi-0.dtd"
   xmlns="http://www.w3.org/2000/svg"
   xmlns:svg="http://www.w3.org/2000/svg"><defs
     id="defs6"><clipPath
       clipPathUnits="userSpaceOnUse"
       id="clipPath16"><path
         d="M 0,960 H 1280 V 0 H 0 Z"
         id="path14" /></clipPath><clipPath
       clipPathUnits="userSpaceOnUse"
       id="clipPath32"><path
         d="M 0,960 H 1280 V 0 H 0 Z"
         id="path30" /></clipPath></defs><sodipodi:namedview
     id="namedview4"
     pagecolor="#ffffff"
     bordercolor="#666666"
     borderopacity="1.0"
     inkscape:pageshadow="2"
     inkscape:pageopacity="0.0"
     inkscape:pagecheckerboard="0" /><g
     id="g8"
     inkscape:groupmode="layer"
     inkscape:label="catw"
     transform="matrix(1.3333333,0,0,-1.3333333,0,1280)"><g
       id="g10"><g
         id="g12"
         clip-path="url(#clipPath16)"><g
           id="g18"
           transform="translate(727.6842,13.2632)"><path
             d="m 0,0 c -3.158,38.947 -6.316,77.895 -9.474,116.842 -8.899,9.628 -20.13,23.892 -29.473,43.158 -7.252,14.953 -11.343,28.745 -13.737,39.737 -1.055,3.049 -2.163,7.497 -2.053,12.895 0.212,10.405 4.822,17.929 7.053,21.105 7.484,5.961 15.305,11.921 23.473,17.842 2.464,1.786 4.921,3.54 7.369,5.263 2.354,-0.561 4.072,-1.392 5.263,-2.105 0.961,-0.575 1.892,-1.262 2.105,-1.053 0.214,0.21 -0.414,1.205 -1.052,2.105 0.934,0.327 2.39,0.772 4.21,1.053 4.562,0.706 8.962,0.007 20,-4.21 3.343,-1.277 7.654,-3.015 12.632,-5.264 1.754,3.86 3.509,7.72 5.263,11.579 2.074,2.956 3.427,3.292 4.21,3.158 3.259,-0.554 4.021,-10.459 4.211,-13.684 4.912,-1.754 9.825,-3.509 14.737,-5.263 4.561,-1.754 9.123,-3.509 13.684,-5.263 l 19.895,27.842 h 52 l 10,-1 9.176,12.224 c 1.249,-1.416 2.913,-3.493 4.536,-6.211 3.104,-5.199 4.537,-10.195 5.446,-14.961 2.561,-13.425 1.314,-26.828 1.052,-29.473 -1.833,-18.532 -4.807,-32.578 -5.263,-34.737 -2.705,-12.822 -6.237,-31.293 -9.474,-54.737 10.238,-50.035 20.476,-100.07 30.714,-150.105 L 0,-13.684 Z"
             style="fill:#fccdbe;fill-opacity:1;fill-rule:nonzero;stroke:none"
             id="path20" /></g><g
           id="g22"
           transform="translate(681.4736,245.6172)"><path
             d="m 0,0 c -2.918,-4.222 -6.349,-11.014 -6.526,-19.764 -0.085,-4.124 0.569,-8.228 1.942,-12.199 l 0.064,-0.228 c 2.962,-13.594 7.532,-26.813 13.583,-39.29 7.546,-15.562 17.352,-29.919 29.143,-42.673 l 0.469,-0.507 9.536,-117.693 v -11.679 l 182.054,0.41 -30.293,148.046 0.047,0.339 c 2.612,18.922 5.807,37.384 9.498,54.876 1.029,4.873 3.589,17.947 5.23,34.521 0.461,4.655 1.282,16.792 -1.027,28.902 -0.732,3.834 -1.984,8.925 -5.199,14.31 -0.827,1.386 -1.745,2.728 -2.741,4.008 l -8.331,-11.099 -11.022,1.103 h -50.871 l -20.197,-28.264 -15.13,5.818 -15.937,5.692 -0.077,1.32 c -0.5,8.467 -1.981,11.352 -2.549,11.806 -0.212,-0.083 -0.922,-0.468 -2.135,-2.162 l -6.01,-13.223 -1.818,0.822 c -4.13,1.866 -8.343,3.621 -12.522,5.217 -11.153,4.26 -15.005,4.719 -18.981,4.103 -0.514,-0.08 -1.028,-0.179 -1.537,-0.296 0.246,-0.799 0.193,-1.605 -0.521,-2.31 -1.298,-1.272 -2.825,-0.312 -3.939,0.39 -0.193,0.122 -0.395,0.249 -0.599,0.371 -1.159,0.693 -2.449,1.247 -3.844,1.65 C 27.571,20.772 25.375,19.201 23.174,17.605 15.346,11.931 7.551,6.009 0,0 m 44.211,-248.043 v 15.607 L 34.8,-116.36 c -11.85,12.916 -21.718,27.423 -29.336,43.132 -6.172,12.728 -10.837,26.207 -13.866,40.07 -1.503,4.385 -2.217,8.918 -2.124,13.476 0.202,9.921 4.144,17.556 7.416,22.214 l 0.165,0.236 0.225,0.179 c 7.668,6.109 15.591,12.13 23.546,17.897 2.472,1.792 4.936,3.552 7.391,5.28 l 0.738,0.519 0.877,-0.209 c 1.482,-0.354 2.885,-0.843 4.189,-1.461 l 1.004,0.35 c 1.48,0.518 3.015,0.902 4.563,1.142 5.298,0.82 10.209,-0.19 21.02,-4.319 3.64,-1.39 7.305,-2.899 10.919,-4.495 l 4.625,10.091 c 0.781,1.112 3.156,4.49 6.185,3.981 2.073,-0.354 4.891,-2.239 5.782,-14.213 l 13.501,-4.822 12.284,-4.724 19.593,27.419 53.229,-0.01 8.878,-0.888 9.972,13.286 1.625,-1.841 c 1.781,-2.018 3.381,-4.207 4.755,-6.508 3.536,-5.923 4.899,-11.454 5.693,-15.611 2.408,-12.623 1.556,-25.217 1.079,-30.046 -1.66,-16.771 -4.254,-30.016 -5.293,-34.932 -3.654,-17.316 -6.817,-35.569 -9.407,-54.279 l 31.135,-152.165 z"
             style="fill:#000000;fill-opacity:1;fill-rule:nonzero;stroke:none"
             id="path24" /></g></g></g><g
       id="g26"><g
         id="g28"
         clip-path="url(#clipPath32)"><g
           id="g34"
           transform="translate(552.9474,634.3158)"><path
             d="m 0,0 c 6.175,31.361 6.875,56.92 6.316,74.737 -1.209,38.474 -1.562,76.972 -2.763,115.447 -0.085,2.722 -0.115,7.732 1.875,13.75 7.494,22.669 34.242,29.914 37.73,30.803 -1.569,0.43 -37.696,9.725 -60.355,-13.803 -9.309,-9.664 -12.52,-20.897 -13.75,-27.25 0,0 -11,-59 -29,-189 -8.305,-1.464 -20.091,-4.291 -33.322,-10.178 -24.102,-10.723 -38.491,-25.141 -41.468,-28.19 0,0 -12.854,-13.166 -22.614,-32.068 -23.73,-45.959 -18.057,-106.964 -16.596,-120.564 0.646,-9.114 1.8,-22.06 4,-37.5 4.265,-29.934 6.398,-44.902 11,-54.079 19.573,-39.033 77.373,-55.371 77.461,-55.421 0,0 3.539,-47 59.539,-80 0,0 9,-18 52,-29 0,0 -3,-23 15,-26 0,0 1,-13 26,-13 0,0 17,8 16,21 0,0 11,7 6,27 9.347,4.764 18.694,9.528 28.041,14.292 -0.778,1.171 -1.359,2.334 -1.791,3.458 -4.649,12.096 5.686,25.638 7.75,28.25 0,0 4,11 44,12 23.333,-5.07 46.666,-10.14 70,-15.21 5.606,3.231 11.637,7.056 17.894,11.579 5.912,4.273 11.166,8.546 15.79,12.631 15.789,2.456 31.579,4.912 47.368,7.369 3.418,3.467 7.104,7.693 10.698,12.756 5.921,8.343 9.745,16.359 12.25,22.875 9.152,3.216 19.517,7.69 30.375,14 23.593,13.713 39.692,30.39 49.835,43 6.062,5.955 6.538,10.293 6.316,12.632 -1.028,10.821 -20.945,20.314 -50.526,22.368 -2.248,13.277 -9.055,42.515 -32.632,70.263 -19.932,23.46 -42.517,34.872 -54.737,40 4.39,10.527 9.894,27.294 10.527,48.421 0.501,16.749 0.806,26.94 -4.211,30.527 -8.19,5.854 -32.41,-4.569 -100.947,-72.211 -6.781,-2.675 -14.805,-6.494 -23.264,-12 -11.36,-7.394 -19.8,-15.416 -25.736,-22 l -13,2 c -10.568,18.149 -23.84,38.028 -40.5,58.375 C 63.481,-47.551 28.468,-19.25 0,0"
             style="fill:#ffffff;fill-opacity:1;fill-rule:nonzero;stroke:none"
             id="path36" /></g><g
           id="g38"
           transform="translate(419.6489,599.2422)"><path
             d="m 0,0 -0.006,-0.006 c -0.519,-0.535 -12.826,-13.302 -22.269,-31.59 -21.828,-42.273 -18.73,-97.605 -16.385,-119.432 0.885,-12.476 2.226,-25.045 3.991,-37.432 4.23,-29.686 6.353,-44.58 10.808,-53.465 18.155,-36.204 70.243,-52.612 76.123,-54.364 0.187,-0.056 0.335,-0.1 0.532,-0.211 l 0.933,-0.525 0.08,-1.067 c 0.035,-0.458 4.2,-46.393 58.559,-78.428 l 0.509,-0.299 0.265,-0.529 c 0.084,-0.162 9.36,-17.38 50.707,-27.957 l 1.716,-0.439 -0.229,-1.757 c -0.11,-0.859 -2.52,-21.124 13.346,-23.769 l 1.545,-0.257 0.12,-1.562 c 0.045,-0.429 1.388,-11.005 23.536,-11.151 2.409,1.244 15.279,8.404 14.476,18.844 l -0.092,1.197 1.012,0.644 c 0.386,0.254 9.686,6.618 5.134,24.827 l -0.386,1.545 27.571,14.052 c -0.323,0.627 -0.611,1.27 -0.862,1.921 -4.611,11.998 3.849,24.839 7.891,30.009 1.112,2.277 8.055,12.017 45.676,12.958 l 0.241,0.007 0.234,-0.052 69.243,-15.046 c 5.851,3.401 11.585,7.127 17.055,11.081 5.39,3.897 10.652,8.106 15.637,12.51 l 0.439,0.388 47.29,7.355 c 3.643,3.745 7.016,7.793 10.03,12.04 4.908,6.916 8.95,14.464 12.014,22.436 l 0.332,0.862 0.872,0.307 c 10.432,3.666 20.536,8.322 30.033,13.842 18.787,10.919 35.368,25.227 49.282,42.525 l 0.158,0.173 c 2.825,2.775 6.112,6.94 5.725,11.016 -0.816,8.595 -17.798,18.418 -48.674,20.562 l -1.57,0.109 -0.263,1.552 c -3.03,17.901 -11.072,44.455 -32.184,69.302 -14.507,17.074 -33.175,30.716 -53.987,39.451 l -1.839,0.772 0.768,1.842 c 6.394,15.334 9.884,31.386 10.373,47.711 0.466,15.584 0.774,25.874 -3.375,28.839 -5.506,3.939 -25.614,-0.193 -98.379,-72.007 l -0.291,-0.287 -0.38,-0.15 c -8.008,-3.159 -15.714,-7.135 -22.906,-11.815 -9.329,-6.072 -17.855,-13.36 -25.343,-21.664 l -0.722,-0.801 -15.011,2.309 -0.48,0.825 c -11.871,20.384 -25.435,39.937 -40.32,58.115 -27.451,33.527 -59.792,62.983 -96.125,87.551 l -1.098,0.743 0.256,1.3 c 4.929,25.032 7.041,50.025 6.279,74.288 -0.607,19.325 -1.005,38.975 -1.389,57.977 -0.381,18.84 -0.776,38.321 -1.374,57.47 -0.066,2.116 -0.241,7.737 1.975,14.441 5.632,17.037 21.538,25.725 31.521,29.625 -11.821,1.511 -34.932,1.841 -50.806,-14.64 -8.427,-8.75 -11.844,-19.101 -13.228,-26.244 -0.107,-0.575 -11.196,-60.444 -28.982,-188.894 l -0.2,-1.442 -1.434,-0.253 C 62.38,35.793 51.326,32.417 40.842,27.753 18.921,18 4.982,5.102 0,0 m 204.798,-448.242 h -0.447 c -21.652,0 -26.576,9.472 -27.681,13.295 -13.546,3.125 -16.087,17.499 -15.477,26.2 -38.376,10.179 -49.422,25.865 -51.322,29.057 -29.042,17.245 -43.805,38.285 -51.08,52.933 -6.503,13.093 -8.343,23.379 -8.82,26.987 -10.083,3.161 -59.428,20.198 -77.408,56.052 -4.748,9.468 -6.9,24.578 -11.19,54.682 -1.78,12.491 -3.131,25.155 -4.017,37.652 -2.377,22.114 -5.51,78.386 16.815,121.623 9.712,18.809 22.418,31.99 22.954,32.542 5.143,5.267 19.527,18.588 42.091,28.626 10.338,4.599 21.215,7.981 32.353,10.06 17.684,127.572 28.706,187.069 28.816,187.658 1.488,7.686 5.17,18.816 14.276,28.27 23.667,24.574 60.757,14.773 62.324,14.344 l 7.294,-1.997 -7.328,-1.869 c -4.847,-1.237 -29.375,-8.469 -36.326,-29.493 -1.768,-5.346 -1.877,-9.788 -1.775,-13.06 0.599,-19.171 0.993,-38.663 1.375,-57.514 0.384,-18.992 0.782,-38.629 1.388,-57.932 0.759,-24.144 -1.293,-48.994 -6.099,-73.887 36.21,-24.635 68.463,-54.097 95.885,-87.587 14.816,-18.096 28.338,-37.541 40.198,-57.811 l 10.996,-1.691 c 7.543,8.229 16.085,15.471 25.405,21.536 7.3,4.753 15.117,8.8 23.238,12.033 76.867,75.819 95.729,77.488 103.225,72.128 5.885,-4.206 5.57,-14.744 5.047,-32.204 -0.484,-16.173 -3.824,-32.075 -9.929,-47.305 20.655,-9 39.177,-22.72 53.665,-39.771 21.099,-24.833 29.499,-51.321 32.809,-69.678 29.315,-2.316 49.66,-11.908 50.816,-24.058 0.426,-4.506 -1.869,-9.271 -6.822,-14.165 -14.207,-17.641 -31.135,-32.237 -50.316,-43.386 -9.45,-5.492 -19.487,-10.149 -29.849,-13.849 -3.141,-7.966 -7.226,-15.516 -12.15,-22.453 -3.265,-4.601 -6.934,-8.976 -10.903,-13.004 l -0.464,-0.471 -47.446,-7.38 c -4.951,-4.35 -10.164,-8.508 -15.502,-12.366 -5.788,-4.184 -11.867,-8.117 -18.067,-11.691 l -0.669,-0.385 -70.519,15.323 c -37.104,-0.968 -41.914,-10.649 -41.958,-10.748 l -0.111,-0.303 -0.173,-0.182 c -2.77,-3.508 -11.497,-15.772 -7.452,-26.293 0.408,-1.064 0.944,-2.096 1.591,-3.069 l 1.242,-1.87 -28.645,-14.599 c 3.642,-16.726 -3.541,-24.586 -6.263,-26.884 0.139,-13.54 -16.465,-21.514 -17.19,-21.856 z"
             style="fill:#000000;fill-opacity:1;fill-rule:nonzero;stroke:none"
             id="path40" /></g></g></g></g></svg>
