<?xml version="1.0" encoding="iso-8859-1"?>
<!-- Generator: Adobe Illustrator 19.0.0, SVG Export Plug-In . SVG Version: 6.00 Build 0)  -->
<svg version="1.1" id="Layer_1" xmlns="http://www.w3.org/2000/svg" xmlns:xlink="http://www.w3.org/1999/xlink" x="0px" y="0px"
	 viewBox="0 0 512 512" style="enable-background:new 0 0 512 512;" xml:space="preserve">
<path style="fill:#65B9E9;" d="M402.559,76.214c-11.634-4.797-46.298-6.408-91.468,18.843c0,0-82.393-67.942-205.133-23.399
	c0,0-51.103,18.361-62.177,65.918c0,0-35.477,16.479-35.477,27.143c0,10.664,13.048,19.519,52.035,17.554
	c47.976-2.416,230.082-5.168,363.294,186.456c0,0-30.077,10.756-52.222,45.451c0,0,66.435-10.602,132.284,41.299
	c0,0-11.097-66.19-49.504-88.253c0,0,12.052-67.719-77.97-199.601c0,0-13.425-56.313,27.242-79.637
	C408.197,85.276,407.602,78.293,402.559,76.214z"/>
<g>
	<path style="fill:#0099DF;" d="M380.414,76.213c5.044,2.079,5.638,9.062,0.906,11.776c-40.667,23.323-27.242,79.637-27.242,79.637
		c90.021,131.882,77.969,199.602,77.969,199.602c25.728,14.78,39.199,49.359,45.291,70.579c8.69,4.888,17.528,10.715,26.358,17.674
		c0,0-11.097-66.19-49.504-88.253c0,0,12.052-67.72-77.97-199.601c0,0-13.425-56.313,27.242-79.637
		c4.732-2.714,4.138-9.696-0.906-11.776c-5.509-2.271-16.186-3.822-30.691-2.152C375.422,74.581,378.302,75.342,380.414,76.213z"/>
	<path style="fill:#0099DF;" d="M371.883,413.465c-0.156,0.241-0.316,0.472-0.472,0.715c0,0,1.565-0.249,4.439-0.483
		C374.485,413.601,373.16,413.525,371.883,413.465z"/>
	<path style="fill:#0099DF;" d="M183.012,194.696c-15.933-4.138-31.036-7.012-44.971-8.982l-4.647,1.18
		c0,0,17.921,48.746,56.331,64.593c4.111,1.696,8.804,1.724,12.709-0.402c5.504-2.996,10.385-10.304,2.107-28.116L183.012,194.696z"
		/>
</g>
<path style="fill:#D9D9DB;" d="M238.543,155.994c-67.962-21.455-117.608,1.02-148.663,25.815
	c71.293,1.494,220.266,23.67,333.755,186.92C423.633,368.729,362.901,195.253,238.543,155.994z"/>
<path style="fill:#65B9E9;" d="M234.066,154.47c-2.87,21.468,2.05,43.319,14.117,61.305c13.533,20.168,26.351,28.111,9.487,30.373
	c-59.977,8.045-87.679-90.153-87.679-90.153l-8.808-20.009l74.148,9.022L234.066,154.47z"/>
<path d="M511.886,454.108c-0.462-2.751-11.342-65.281-48.955-91.179c0.987-19.289-2.507-86.168-78.91-198.602
	c-1.552-8.263-7.87-51.099,23.574-69.134c4.917-2.82,7.744-8.096,7.375-13.766c-0.373-5.753-3.917-10.693-9.247-12.891
	c-12.362-5.098-47.451-7.842-93.923,16.683c-9.113-6.443-31.441-20.435-64.262-29.274c-4.423-1.188-8.985,1.431-10.178,5.86
	c-1.193,4.428,1.431,8.985,5.86,10.178c39.143,10.542,62.369,29.302,62.587,29.48c2.641,2.179,6.347,2.512,9.335,0.843
	c23.763-13.284,43.232-18.05,55.382-19.711c11.339-1.547,20.112-0.964,25.446,0.255c-17.029,11.173-27.25,29.363-29.64,52.864
	c-1.848,18.183,1.663,33.207,1.814,33.839c0.235,0.985,0.648,1.919,1.219,2.756c45.202,66.22,63.633,115.375,71.136,144.951
	c8.091,31.892,5.534,48.404,5.516,48.513c-0.615,3.448,1.002,6.911,4.039,8.655c21.584,12.399,33.906,41.292,40.135,61.347
	c-40.908-25.79-79.621-30.599-101.572-30.83c18.179-21.024,37.602-28.32,37.81-28.396c2.434-0.869,4.324-2.825,5.112-5.286
	c0.788-2.461,0.385-5.15-1.09-7.272c-22.653-32.586-48.109-61.543-75.66-86.068c-3.427-3.048-8.675-2.745-11.725,0.682
	c-3.049,3.426-2.745,8.674,0.681,11.725c24.301,21.63,46.936,46.872,67.381,75.128c-11.479,6.24-30.972,19.588-46.718,44.26
	c-1.755,2.75-1.728,6.273,0.055,9.005c1.784,2.734,5.009,4.163,8.236,3.667c0.634-0.097,63.878-9.23,125.853,39.618
	c1.499,1.18,3.316,1.782,5.142,1.782c1.457,0,2.92-0.383,4.231-1.159C510.881,460.877,512.453,457.493,511.886,454.108z"/>
<path d="M332.209,259.148c-23.85-18.485-49.536-34.25-76.371-46.901c-6.482-9.465-13.173-21.725-16.575-37.635
	c-0.959-4.484-5.369-7.341-9.857-6.384c-4.484,0.959-7.343,5.372-6.384,9.857c4.199,19.638,12.728,34.49,20.35,45.317
	c0.104,0.156,0.209,0.311,0.324,0.461c2.86,4.034,5.586,7.516,7.887,10.444c0.964,1.226,2.021,2.571,2.977,3.833
	c-50.706,4.468-76.243-83.233-76.576-84.4c-1.246-4.413-5.835-6.98-10.246-5.739c-4.415,1.246-6.983,5.834-5.738,10.248
	c0.19,0.673,3.202,11.202,9.27,25.074c-36.312-8.096-73.688-11.237-111.348-9.342c-14.534,0.731-24.181-0.138-30.57-1.504
	c19.491-1.468,48.305-6.176,69.331-20.625c3.78-2.598,4.739-7.767,2.141-11.547c-2.596-3.781-7.766-4.74-11.547-2.143
	c-17.994,12.363-43.962,16.441-61.524,17.739c5.569-3.635,12.559-7.554,19.527-10.795c2.317-1.076,4.01-3.16,4.59-5.648
	c9.884-42.445,56.443-59.821,56.922-59.996c34.497-12.519,69.009-17.035,102.57-13.438c4.561,0.493,8.654-2.81,9.143-7.371
	c0.489-4.56-2.81-8.653-7.371-9.143c-36.101-3.875-73.112,0.95-109.984,14.33c-2.202,0.792-52.786,19.482-66.452,67.943
	c-3.542,1.77-9.245,4.748-15.005,8.289C7.104,149.042,0.394,156.477,0.033,164.07c-0.008,0.094-0.022,0.187-0.027,0.282
	c-0.002,0.064,0.002,0.127,0.001,0.192C0.009,164.603,0,164.661,0,164.719c0,0.081,0.011,0.158,0.012,0.238
	c0.004,0.146,0.01,0.29,0.022,0.434c0.173,5.455,2.418,10.409,6.564,14.35c9.109,8.662,26.825,12.203,54.16,10.826
	c22.162-1.116,44.217-0.399,65.996,2.099c4.709,11.291,23.674,51.592,59.802,66.497c3.029,1.251,6.18,1.872,9.275,1.872
	c3.703,0,7.328-0.89,10.573-2.657c5.561-3.027,9.152-7.922,10.391-14.158c10.706,7.081,22.101,10.698,33.966,10.698
	c2.649,0,5.32-0.179,8.013-0.54c3.47-0.466,11.597-1.556,14.425-8.52c0.77-1.897,0.991-3.718,0.795-5.528
	c16.663,9.409,32.743,20.092,48.04,31.947c1.514,1.174,3.304,1.741,5.081,1.741c2.479,0,4.934-1.106,6.57-3.217
	C336.495,267.174,335.834,261.958,332.209,259.148z M198.463,243.792c-1.517,0.826-3.599,0.834-5.572,0.019
	c-23.615-9.743-39.048-33.949-46.491-48.4c11.613,1.927,23.129,4.376,34.525,7.335c1.066,1.89,2.172,3.786,3.333,5.679
	c4.007,6.542,8.205,12.407,12.569,17.594c0.06,0.149,0.113,0.301,0.182,0.45C199.029,230.815,203.215,241.206,198.463,243.792z"/>
<path d="M107.192,113.284c0,5.258,4.285,9.536,9.552,9.536c5.267,0,9.552-4.277,9.552-9.536c0-5.258-4.285-9.537-9.552-9.537
	C111.477,103.748,107.192,108.026,107.192,113.284z"/>
<g>
</g>
<g>
</g>
<g>
</g>
<g>
</g>
<g>
</g>
<g>
</g>
<g>
</g>
<g>
</g>
<g>
</g>
<g>
</g>
<g>
</g>
<g>
</g>
<g>
</g>
<g>
</g>
<g>
</g>
</svg>
