<?xml version="1.0" encoding="UTF-8" standalone="no"?>
<!-- Created with Inkscape (http://www.inkscape.org/) -->

<svg
   version="1.1"
   id="svg2"
   xml:space="preserve"
   width="6912"
   height="4608"
   viewBox="0 0 6912 4608"
   sodipodi:docname="water.ai"
   xmlns:inkscape="http://www.inkscape.org/namespaces/inkscape"
   xmlns:sodipodi="http://sodipodi.sourceforge.net/DTD/sodipodi-0.dtd"
   xmlns="http://www.w3.org/2000/svg"
   xmlns:svg="http://www.w3.org/2000/svg"><defs
     id="defs6"><clipPath
       clipPathUnits="userSpaceOnUse"
       id="clipPath16"><path
         d="M 0,3456 H 5184 V 0 H 0 Z"
         id="path14" /></clipPath></defs><sodipodi:namedview
     id="namedview4"
     pagecolor="#ffffff"
     bordercolor="#666666"
     borderopacity="1.0"
     inkscape:pageshadow="2"
     inkscape:pageopacity="0.0"
     inkscape:pagecheckerboard="0" /><g
     id="g8"
     inkscape:groupmode="layer"
     inkscape:label="water"
     transform="matrix(1.3333333,0,0,-1.3333333,0,4608)"><g
       id="g10"><g
         id="g12"
         clip-path="url(#clipPath16)"><g
           id="g18"
           transform="translate(1364.2672,1917.9534)"><path
             d="m 0,0 c 0,0 -14,-214 78,-550 92,-336 367,-592 367,-592 10.644,-9.042 22.663,-18.914 36.041,-29.358 4.996,-3.9 60.701,-47.122 124.959,-84.642 127.524,-74.461 264.276,-112.18 279.667,-116.333 105.967,-28.595 188.047,-34.615 262.333,-39.667 121.048,-8.233 272.054,-17.251 455,31.667 85.151,22.768 171.845,54.469 248.304,98.671 35.163,20.327 66.353,50.532 96.52,77.495 36.838,32.924 72.196,67.505 105.926,103.606 61.114,65.414 189.509,185.754 265.25,379.777 C 2429,-439 2442,-164 2442,-164 c 0,0 16,306 -68,535 -84,229 -110,277 -110,277 0,0 -102,216 -361,460 0,0 -149,134 -228,123 -79,-11 -178,-94 -178,-94 0,0 -149,-134 -228,-268 l -40,-59 c 0,0 -9,12 -17,12 -8,0 8,23 20,22 l -28,26 c -8.359,-6.772 -20.495,-18.751 -24.39,-36.187 -2.538,-11.362 0.186,-20.134 -4.549,-22.758 -5.49,-3.043 -15.483,5.022 -27.465,15.294 C 1122.937,847.487 1110.607,858.056 1104,866 1084.216,889.785 937.842,1036.397 756,1075 577,1113 485,1045 301,844 117,643 68,435 68,435 68,435 -15,101 0,0"
             style="fill:#1c3308;fill-opacity:1;fill-rule:nonzero;stroke:none"
             id="path20" /></g><g
           id="g22"
           transform="translate(1555.2672,2618.9534)"><path
             d="m 0,0 c -28.967,-53.227 -272.639,-519.928 -43.828,-1028.161 260.402,-578.403 887.642,-666.135 921.61,-670.282 -117.068,54.749 -291.165,153.034 -460.115,323.517 -16.32,16.467 -138.729,141.279 -233.334,300 C -68.042,-651.507 -20.693,-157.638 0,0"
             style="fill:#87a338;fill-opacity:1;fill-rule:nonzero;stroke:none"
             id="path24" /></g><g
           id="g26"
           transform="translate(2454.5474,825.1036)"><path
             d="M 0,0 C 32.943,2.312 51.256,6.655 51.256,6.655 33.902,4.112 16.824,1.905 0,0"
             style="fill:#87a338;fill-opacity:1;fill-rule:nonzero;stroke:none"
             id="path28" /></g><g
           id="g30"
           transform="translate(1391.2672,1601.9534)"><path
             d="M 0,0 C 14.157,-67.117 95.083,-417.625 433.519,-632 741.06,-826.806 1062.3,-783.183 1063.28,-776.85 1064.138,-771.304 822.504,-775.087 561,-627 396.649,-533.93 290.395,-417.454 237,-358 117.425,-224.857 44.046,-93.958 0,0"
             style="fill:#87a338;fill-opacity:1;fill-rule:nonzero;stroke:none"
             id="path32" /></g><g
           id="g34"
           transform="translate(2898.8599,995.8793)"><path
             d="m 0,0 c -6.8,7.534 187.923,143.164 333.333,411.111 70.423,129.767 105.015,245.6 129.63,329.63 18.759,64.04 63.298,227.869 77.778,440.74 21.109,310.343 -31.659,578.121 -88.889,770.371 57.638,-95.904 134.344,-249.776 170.37,-451.852 5.328,-29.883 25.501,-149.078 16.809,-326.237 -7.91,-161.208 -24.662,-502.631 -235.327,-810.8 C 232.357,112.312 6.975,-7.729 0,0"
             style="fill:#87a338;fill-opacity:1;fill-rule:nonzero;stroke:none"
             id="path36" /></g><g
           id="g38"
           transform="translate(3682.7671,2434.4534)"><path
             d="m 0,0 c 14.317,-168.646 24.201,-558.309 -191.315,-942.278 -16.678,-29.714 -144.14,-253.338 -325.926,-407.407 -69.673,-59.051 -201.351,-153.695 -337.679,-237.671 -0.426,-0.262 -0.646,-0.397 -0.651,-0.4 120.575,29.327 420.402,120.159 650.514,399.498 C 204.176,-691.48 17.079,-54.752 0,0"
             style="fill:#87a338;fill-opacity:1;fill-rule:nonzero;stroke:none"
             id="path40" /></g><g
           id="g42"
           transform="translate(2811.9814,816.0833)"><path
             d="M 0,0 C 0,0 548.872,-30.521 924.425,540.444 924.425,540.444 707.714,-146.024 0,0 -707.714,146.024 0,0 0,0"
             style="fill:#87a338;fill-opacity:1;fill-rule:nonzero;stroke:none"
             id="path44" /></g><g
           id="g46"
           transform="translate(2811.9595,792.2715)"><path
             d="m 0,0 c 0,0 233.978,-168.01 453.527,-118.318 19.521,15.692 39.517,32.664 59.781,51 34.171,30.92 64.564,61.614 91.482,91.13 C 565.703,7.948 501.22,-12.509 419.869,-26.007 307.83,-44.598 156.632,-50.551 0,0 -313.265,101.102 0,0 0,0"
             style="fill:#87a338;fill-opacity:1;fill-rule:nonzero;stroke:none"
             id="path48" /></g><g
           id="g50"
           transform="translate(1510.2672,1192.9534)"><path
             d="m 0,0 c 51.023,-104.465 110.159,-178.396 153,-225 58.261,-63.378 149.764,-162.918 302.259,-212.815 80.599,-26.372 145.76,-28.251 211.111,-29.629 86.774,-1.831 217.343,6.806 370.781,61.892 -94.533,-18.321 -228.232,-31.164 -382.428,-2.734 C 285.46,-340.205 66.736,-84.861 0,0"
             style="fill:#87a338;fill-opacity:1;fill-rule:nonzero;stroke:none"
             id="path52" /></g><g
           id="g54"
           transform="translate(2585.2671,748.9534)"><path
             d="M 0,0 C -3.145,7.552 -99.996,-34.439 -214.515,-56.908 -410.314,-95.324 -585.08,-62.414 -713,-22 c 39.767,-30.323 75.782,-52.864 104,-69 49.504,-28.308 89.705,-45.316 120,-58 42.985,-17.998 80.426,-30.952 109,-40 C -68.406,-46.75 2.757,-6.621 0,0"
             style="fill:#87a338;fill-opacity:1;fill-rule:nonzero;stroke:none"
             id="path56" /></g><g
           id="g58"
           transform="translate(2543.2671,2689.9534)"><path
             d="m 0,0 c 0,0 13,33 46,21 15.412,23.296 36.275,53.834 62.089,88.846 18.224,24.718 49.144,66.484 91.495,115.495 63.283,73.232 102.884,119.061 167.992,161.992 39.592,26.106 75.535,42.515 100.495,52.497 12.44,2.96 30.708,5.833 52.454,3.771 10e-4,0 18.764,-2.259 37.541,-8.271 50.651,-16.218 87.66,-65.333 115.759,-107.732 38.404,-57.947 68.076,-121.713 93.669,-186.198 22.762,-57.355 42.713,-116.258 57.044,-176.321 12.326,-51.657 12.927,-104.175 13.636,-156.947 0.699,-51.95 -0.289,-103.919 -2.762,-155.815 -2.09,-43.858 -5.508,-87.589 -9.412,-131.317 0,0 -28,-308 -109,-514 -81,-206 -132,-269 -132,-269 l -194,-356 c 0,0 -95,-200 -95,-200.001 -18.785,-40.541 -79.379,-205.512 -129.638,-197.428 -19.112,3.075 -42.915,20.477 -59.722,30.565 -81.051,48.649 -142.613,122.82 -200.966,195.628 -69.246,84.882 -137.406,170.726 -201.841,259.329 -31.997,43.999 -63.054,88.69 -92.769,134.265 -15.225,23.353 -30.101,46.935 -44.57,70.765 -7.259,11.955 -14.418,23.971 -21.467,36.052 -4.414,7.565 -58.86,104.078 -79.655,138.928 -54.163,90.872 -112.585,179.694 -160.127,274.309 -49.689,98.885 -90.177,202.393 -120.729,308.76 -18.148,63.181 -34.548,127.785 -46.879,192.199 -18.209,95.155 -21.649,168.554 -22.499,190.493 -2.743,70.86 0.017,131.557 28.513,197.263 28.216,65.062 67.418,125.375 116.98,176.215 30.86,31.656 71.038,71.959 137.993,95.996 52.324,18.784 99.194,19.807 128.994,17.999 32.195,-4.53 78.516,-14.031 130.493,-35.999 44.617,-18.856 78.459,-40.583 115.495,-67.496 C -175.979,163.205 -95.822,99.646 0,0"
             style="fill:#ede8d6;fill-opacity:1;fill-rule:nonzero;stroke:none"
             id="path60" /></g><g
           id="g62"
           transform="translate(2564.2676,2489.9541)"><path
             d="m 0,0 c 30.034,65.222 62.218,129.561 95.779,193.03 41.402,78.299 79.013,161.818 139.913,227.45 46.391,49.995 132.986,118.916 205.308,113.519 67,-5 119,-88 119,-88 48.144,-75.348 111.042,-192.247 150,-346 49.853,-196.753 35.411,-354.827 26.154,-447.077 C 717.215,-535.809 663.98,-690.507 613,-803.001 c -16.848,-33.216 -39.317,-78.156 -65.228,-131.914 -3.893,-8.076 -13.338,-27.71 -25.147,-52.711 -72.557,-153.602 -171.08,-370.975 -171.087,-370.99 -29.358,-64.586 -59.01,-129.034 -89.125,-193.271 -24.293,-51.816 -68.943,-207.887 -136.694,-206.556 -64.199,1.261 -139.495,95.82 -172.459,139.442 0,0 -275.258,323.997 -386.259,518.997 -176.65,310.328 -310.326,634.739 -379.025,986.741 -26.304,134.78 9.038,334.13 145.024,406.262 24.985,17.516 121.313,80.619 253,66 168.181,-18.669 257.071,-148.905 269.384,-167.615 24.45,-31.983 48.809,-64.035 73.077,-96.154 C -47.603,63.55 -23.756,31.807 0,0"
             style="fill:#d02e29;fill-opacity:1;fill-rule:nonzero;stroke:none"
             id="path64" /></g><g
           id="g66"
           transform="translate(2456.9814,1989.0649)"><path
             d="M 0,0 C 18.355,-18.355 25.003,-41.465 14.849,-51.619 4.696,-61.772 -18.415,-55.124 -36.77,-36.77 -55.124,-18.415 -61.772,4.696 -51.619,14.849 -41.465,25.003 -18.354,18.355 0,0"
             style="fill:#000000;fill-opacity:1;fill-rule:nonzero;stroke:none"
             id="path68" /></g><g
           id="g70"
           transform="translate(2322.4292,2462.4656)"><path
             d="m 0,0 c 11.199,-23.417 8.565,-48.002 -5.884,-54.913 -14.449,-6.91 -35.241,6.472 -46.44,29.889 -11.199,23.417 -8.565,48.002 5.884,54.912 C -31.992,36.798 -11.199,23.417 0,0"
             style="fill:#000000;fill-opacity:1;fill-rule:nonzero;stroke:none"
             id="path72" /></g><g
           id="g74"
           transform="translate(2707.2671,1578.9534)"><path
             d="m 0,0 c 0,-19.882 -8.954,-36 -20,-36 -11.046,0 -20,16.118 -20,36 0,19.882 8.954,36 20,36 C -8.954,36 0,19.882 0,0"
             style="fill:#000000;fill-opacity:1;fill-rule:nonzero;stroke:none"
             id="path76" /></g><g
           id="g78"
           transform="translate(2330.2068,1714.9181)"><path
             d="m 0,0 c 15.53,-17.966 18.297,-41.022 6.18,-51.496 -12.117,-10.474 -34.529,-4.4 -50.059,13.567 -15.53,17.966 -18.298,41.021 -6.181,51.495 C -37.943,24.04 -15.53,17.966 0,0"
             style="fill:#000000;fill-opacity:1;fill-rule:nonzero;stroke:none"
             id="path80" /></g><g
           id="g82"
           transform="translate(2192.4573,2211.0879)"><path
             d="m 0,0 c 11.438,-23.915 8.593,-49.098 -6.354,-56.246 -14.947,-7.149 -36.336,6.443 -47.774,30.359 -11.438,23.915 -8.593,49.097 6.354,56.246 C -32.827,37.507 -11.438,23.915 0,0"
             style="fill:#000000;fill-opacity:1;fill-rule:nonzero;stroke:none"
             id="path84" /></g><g
           id="g86"
           transform="translate(2356.7859,2291.0864)"><path
             d="m 0,0 c -2.52,-15.257 -20.465,-24.999 -40.082,-21.759 -19.616,3.24 -33.476,18.236 -30.955,33.493 2.52,15.257 20.465,24.999 40.081,21.759 C -11.339,30.252 2.52,15.257 0,0"
             style="fill:#000000;fill-opacity:1;fill-rule:nonzero;stroke:none"
             id="path88" /></g><g
           id="g90"
           transform="translate(2145.2139,2151.9695)"><path
             d="m 0,0 c 13.992,-21.755 13.631,-46.918 -0.806,-56.203 -14.437,-9.286 -37.483,0.823 -51.475,22.578 -13.992,21.755 -13.631,46.918 0.806,56.203 C -37.038,31.863 -13.992,21.755 0,0"
             style="fill:#000000;fill-opacity:1;fill-rule:nonzero;stroke:none"
             id="path92" /></g><g
           id="g94"
           transform="translate(2028.8065,2500.6821)"><path
             d="m 0,0 c 12.651,-21.912 12.196,-45.86 -1.017,-53.488 -13.213,-7.628 -34.18,3.951 -46.831,25.863 -12.651,21.912 -12.195,45.86 1.017,53.488 C -33.618,33.491 -12.651,21.912 0,0"
             style="fill:#000000;fill-opacity:1;fill-rule:nonzero;stroke:none"
             id="path96" /></g><g
           id="g98"
           transform="translate(2731.1902,2348.761)"><path
             d="m 0,0 c 0,-28.613 -14.31,-51.808 -31.961,-51.808 -17.652,0 -31.962,23.195 -31.962,51.808 0,28.613 14.31,51.808 31.962,51.808 C -14.31,51.808 0,28.613 0,0"
             style="fill:#000000;fill-opacity:1;fill-rule:nonzero;stroke:none"
             id="path100" /></g><g
           id="g102"
           transform="translate(2764.5347,2076.6033)"><path
             d="m 0,0 c 12.885,-10.917 7.21,-38.794 -12.676,-62.265 -19.885,-23.47 -46.451,-33.647 -59.336,-22.73 -12.886,10.917 -7.211,38.794 12.675,62.264 C -39.451,0.74 -12.885,10.917 0,0"
             style="fill:#000000;fill-opacity:1;fill-rule:nonzero;stroke:none"
             id="path104" /></g><g
           id="g106"
           transform="translate(2965.8057,2641.6091)"><path
             d="m 0,0 c 0,-32.563 -15.68,-58.959 -35.022,-58.959 -19.343,0 -35.022,26.396 -35.022,58.959 0,32.563 15.679,58.96 35.022,58.96 C -15.68,58.96 0,32.563 0,0"
             style="fill:#000000;fill-opacity:1;fill-rule:nonzero;stroke:none"
             id="path108" /></g><g
           id="g110"
           transform="translate(2930.7834,1798.1458)"><path
             d="m 0,0 c 0,-18.332 -24.017,-33.192 -53.643,-33.192 -29.626,0 -53.642,14.86 -53.642,33.192 0,18.332 24.016,33.192 53.642,33.192 C -24.017,33.192 0,18.332 0,0"
             style="fill:#000000;fill-opacity:1;fill-rule:nonzero;stroke:none"
             id="path112" /></g><g
           id="g114"
           transform="translate(2983.9807,2306.2688)"><path
             d="m 0,0 c 10.186,-21.298 10.773,-42.233 1.311,-46.758 -9.463,-4.526 -25.391,9.071 -35.577,30.37 C -44.453,4.91 -45.04,25.845 -35.577,30.37 -26.115,34.896 -10.186,21.299 0,0"
             style="fill:#000000;fill-opacity:1;fill-rule:nonzero;stroke:none"
             id="path116" /></g></g></g></g></svg>
